# xmcd
#
# Track frame offsets:
#	150
#	22123
#	40915
#	58178
#	79605
#	102215
#	121115
#	139285
#	154833
#	173155
#	195290
#	216323
#	239248
#	255683
#
# Disc length: 3683 seconds
#
# Revision: 3
# Processed by: cddbd v1.5.1PL0 Copyright (c) Steve Scherf et al.
# Submitted via: EasyCDDAExtractor 5.0.6
#
DISCID=c60e610e
DTITLE=夏韶聲 - 迴望
DYEAR=2000
DGENRE=Blues
TTITLE0=結他低泣時
TTITLE1=我是捨不得你 
TTITLE2=路中情
TTITLE3=Wild World 
TTITLE4=風中希冀
TTITLE5=綠印淚\
TTITLE6=平凡亦快樂
TTITLE7=媽媽我沒有做錯
TTITLE8=閉著眼睛再見面
TTITLE9=你漂亮的固執
TTITLE10=珍惜這地球
TTITLE11=讓我孤單過這一晚
TTITLE12=The Fool 
TTITLE13=Blue Guitar
EXTD=YEAR: 2000 ID3G: 0
EXTT0=
EXTT1=
EXTT2=
EXTT3=
EXTT4=
EXTT5=
EXTT6=
EXTT7=
EXTT8=
EXTT9=
EXTT10=
EXTT11=
EXTT12=
EXTT13=
PLAYORDER=
